<svg xmlns="http://www.w3.org/2000/svg" viewBox="0 0 310.3 307.18">
  <defs>
    <style>
      .cls-1 {
        fill: #fff;
      }

      .cls-2 {
        fill: #2a1000;
      }

      .cls-3 {
        fill: #4a7645;
      }
    </style>
  </defs>
  <title>checkmark</title>
  <g id="Lag_2" data-name="Lag 2">
    <g id="Lag_3" data-name="Lag 3">
      <g>
        <g>
          <rect class="cls-1" x="12.43" y="42.81" width="251.93" height="251.93" rx="21.91" ry="21.91"/>
          <path class="cls-2" d="M242.46,307.18H34.34A34.38,34.38,0,0,1,0,272.84V64.72A34.38,34.38,0,0,1,34.34,30.38H242.46A34.39,34.39,0,0,1,276.8,64.72V272.84A34.39,34.39,0,0,1,242.46,307.18ZM34.34,55.25a9.49,9.49,0,0,0-9.48,9.47V272.84a9.49,9.49,0,0,0,9.48,9.48H242.46a9.49,9.49,0,0,0,9.47-9.48V64.72a9.48,9.48,0,0,0-9.47-9.47Z"/>
        </g>
        <g>
          <path class="cls-3" d="M73.59,261.88a25.17,25.17,0,0,1-17.7-43.06L267.44,9.55a25.17,25.17,0,0,1,35.4,35.78L91.29,254.61A25.11,25.11,0,0,1,73.59,261.88Z"/>
          <path class="cls-3" d="M285.14,261.88a25.13,25.13,0,0,1-17.9-7.46L58,42.87A25.17,25.17,0,1,1,93.75,7.47L303,219a25.16,25.16,0,0,1-17.89,42.86Z"/>
        </g>
      </g>
    </g>
  </g>
</svg>
