<svg xmlns="http://www.w3.org/2000/svg" width="1366.367" height="203.694" viewBox="0 0 1366.367 203.694">
  <g id="Group_37" data-name="Group 37" transform="translate(0.357 -489.929)">
    <g id="Group_38" data-name="Group 38">
      <path id="Path_1" data-name="Path 1" d="M40.871,379.511s21.582-34.953,248.6-31.317S917.154,548.168,1407.229,493.3v57.447L41.047,549.02Z" transform="translate(-41.229 142)" fill="#80b35b"/>
      <path id="Path_542" data-name="Path 542" d="M29,418.068c268.245-74.338,338.014-12.508,661.582,21.4C983,479.2,1176.868,497.424,1395.262,474.68l.033,49.011L29.289,520.91Z" transform="translate(-29.289 169.037)" fill="#6e9f4a"/>
      <path id="Path_543" data-name="Path 543" d="M588.881,377.153c-108.752-.91-221.931,66.246-473.863,39.781l.055,37.681,433.733-8.761,395.4,4.772S697.633,378.063,588.881,377.153Z" transform="translate(-115.209 236.848)" fill="#4f802b"/>
      <path id="Path_544" data-name="Path 544" d="M1317.521,377.325c-225.551-.58-295.542,39.693-818.049,22.828l-.011,19.794H1865.654s.016-5.833,0-13.207C1776.405,396.081,1493.677,377.778,1317.521,377.325Z" transform="translate(-499.652 273.676)" fill="#4e6839"/>
    </g>
  </g>
</svg>
