<svg xmlns="http://www.w3.org/2000/svg" xmlns:xlink="http://www.w3.org/1999/xlink" viewBox="0 0 2133.95 1081.03"><defs><radialGradient id="Ikke-navngivet_forløb_464" cx="-9302.07" cy="437.67" r="409.22" gradientTransform="matrix(-1, 0, 0, 1, -8603.44, 0)" gradientUnits="userSpaceOnUse"><stop offset="0.02" stop-color="#4d9659"/><stop offset="0.33" stop-color="#459456"/><stop offset="0.82" stop-color="#2f8f4d"/><stop offset="1" stop-color="#258d49"/></radialGradient><radialGradient id="Ikke-navngivet_forløb_464-2" cx="378.64" cy="439.1" r="409.22" gradientTransform="matrix(1, 0, 0, 1, 0, 0)" xlink:href="#Ikke-navngivet_forløb_464"/></defs><title>logo_1</title><g id="Lag_2" data-name="Lag 2"><g id="Lag_3" data-name="Lag 3"><path d="M926.51,80.85S936.6,31.94,893.17,6.16c0,0-53.64-26-83.68,30.81,0,0-12.19-41.45-56.08-36.57,0,0-53.63,2.44-43.88,56.07,0,0-20.67-25.91-51.2-12.19C625.09,59.23,634,90.6,634,90.6s-22.3-26.75-53.63-9.75c-20.81,11.29-20,40.54-15.53,57,0,0-25.92-18-47.86,1.52-22.24,19.78-2.44,58.52-2.44,58.52s-21.94-24.38-48.76-2.44c-29.29,24-2.44,65.82-2.44,65.82s-18.12-31.37-51.2-7.31c-26.81,19.5-4.87,68.26-4.87,68.26S384,303,363.33,334.4c-17.94,27.34,2.44,65.83,2.44,65.83s-24.38-31.69-43.88,19.5c-9.85,25.86,21.94,78,21.94,78-3.49,5.76-34.13-7.32-19.5,56.07,12.86,55.73,47,118.06,105.53,198.52,62,85.31,87.79,112.17,97.16,115.59,14.1,5.16,18.12,7.41,18.12,7.41S574.77,872,640,853.13c176-51,232.08-94.85,232.08-94.85S952.51,712,981.77,658.33a55.14,55.14,0,0,0-.81-55.55s44.78-23.72,57.7-51.4c17.06-36.57-21.94-48.76-21.94-48.76s47.15-15.26,56.07-48.75c10.75-40.33-29.26-43.89-29.26-43.89s25.3-8.54,31.7-34.13c12.19-48.76-34.13-53.64-34.13-53.64s45.56-19.56,30.73-56.06c-11-27.21-50.24-24.39-50.24-24.39s27.72-20,19.51-51.2c-12.19-46.32-63.39-26.82-63.39-26.82s32.19-32.59,14.63-63.38C973,66.41,926.51,80.85,926.51,80.85Z" fill="url(#Ikke-navngivet_forløb_464)"/><path d="M869.69,40.08S823.3,154.21,800,210.73s-108.33,259-157.87,377.93c-16.9,40.57-58.23,147.45-95.82,281.39-14.32,51-20.93,99.88-56,188,0,0-13.82,21.13-34.14,13-7.16-2.87-11.38-10.57-4.06-24.39,0,0,51.88-95.76,74.36-182.81s78-230.21,110.27-302.26c20-44.56,119.85-272.76,135.4-308.62S857.56,58.52,869.69,40.08Z" fill="#6fb768"/><path d="M721.65,401.89s117.49-10.27,288.59-83.27c0,0-109.93,66.8-295.13,92.08Z" fill="#6fb768"/><path d="M791.63,395.22s1.58,12.5,71.18,36.31c0,0-61-9.73-83.14-33.95Z" fill="#6fb768"/><path d="M863.92,377.13s2.49,12.34,73.66,30.94c0,0-61.51-5.2-85.42-27.71Z" fill="#6fb768"/><path d="M945.73,347.58s1.87,9.23,55.06,23.13c0,0-46-3.88-63.84-20.71Z" fill="#6fb768"/><path d="M836.35,381.63s-3.86-12,49.12-63c0,0-51.12,34.62-61,65.95Z" fill="#6fb768"/><path d="M918,357.79s-2.79-8.68,35.54-45.6c0,0-37,25.05-44.1,47.71Z" fill="#6fb768"/><path d="M770.08,396.36s-3.87-12,49.12-63c0,0-51.12,34.62-61,66Z" fill="#6fb768"/><path d="M771.84,274.13s73,0,229.27-65c0,0-82.12,53.61-230.39,73.25Z" fill="#6fb768"/><path d="M807.86,273.48s-1.86,9.07,41,42.13c0,0-40.19-21.2-49.91-43.32Z" fill="#6fb768"/><path d="M858.56,264.54s-1.86,9.07,41,42.13c0,0-40.18-21.2-49.91-43.32Z" fill="#6fb768"/><path d="M905,250.12s1,9.22,51.78,27.87c0,0-44.7-8.15-60.62-26.33Z" fill="#6fb768"/><path d="M858.36,259.72s-2.65-8.88,37.15-45.57c0,0-38.16,24.64-45.91,47.53Z" fill="#6fb768"/><path d="M912.44,247.59s-2.65-8.88,37.15-45.57c0,0-38.16,24.64-45.91,47.53Z" fill="#6fb768"/><path d="M809.36,269.49s-2.65-8.88,37.15-45.57c0,0-38.16,24.64-45.91,47.53Z" fill="#6fb768"/><path d="M658.83,537S846,499.58,1004.21,425.51c0,0-152.8,85.36-346.9,120.56Z" fill="#6fb768"/><path d="M718.85,529.6s1.75,12.47,71.69,35.29c0,0-61.1-8.86-83.62-32.76Z" fill="#6fb768"/><path d="M806.16,504.76s3.2,12.18,75.33,26.67c0,0-61.72-1.66-86.88-22.76Z" fill="#6fb768"/><path d="M890.65,474.33s6.11,11,79.57,7.21c0,0-60.2,13.66-89.8-.57Z" fill="#6fb768"/><path d="M843,495.79S838.7,484,889.8,431c0,0-49.83,36.44-58.54,68.1Z" fill="#6fb768"/><path d="M747.27,521.49s-4.29-11.83,46.81-64.75c0,0-49.83,36.45-58.54,68.11Z" fill="#6fb768"/><path d="M610.55,658.65s120.32-.74,348-113.37c0,0-151.24,98.79-349.48,124.44Z" fill="#6fb768"/><path d="M713.79,646.42s3.32,12.14,75.58,25.9c0,0-61.72-1-87.09-21.88Z" fill="#6fb768"/><path d="M657.48,658.16s1.53,12.5,71,36.59c0,0-60.92-10-83-34.27Z" fill="#6fb768"/><path d="M807.83,618.54s3.33,12.14,75.61,25.84c0,0-61.73-1-87.12-21.81Z" fill="#6fb768"/><path d="M858.06,593.39s2.43,8.86,55.17,18.86c0,0-45-.72-63.57-15.92Z" fill="#6fb768"/><path d="M775.63,623.31s-5.16-11.49,41.87-68c0,0-47,40-53.31,72.26Z" fill="#6fb768"/><path d="M878.13,584.66S873,573.17,920,516.6c0,0-47,40-53.31,72.27Z" fill="#6fb768"/><path d="M672.15,651.76s-5.16-11.49,41.87-68c0,0-47,40-53.31,72.26Z" fill="#6fb768"/><path d="M564.53,787.91s219-54.1,368.06-126.61c0,0-175.78,99.14-369.58,135.74Z" fill="#6fb768"/><path d="M628.94,778.94s3.2,7.4,62.8,22.24c0,0-51.85-4.79-69.1-20.81Z" fill="#6fb768"/><path d="M755.21,739s4.73,8.68,65.5,14.7c0,0-51.27,2.32-73.55-10.95Z" fill="#6fb768"/><path d="M840.54,704s3.93,5.8,47.18,5.94c0,0-36,5.1-52.6-2.76Z" fill="#6fb768"/><path d="M951.58,232.51s3.92,5.8,47.18,6c0,0-36,5.1-52.61-2.76Z" fill="#6fb768"/><path d="M899.86,577.78s3.93,5.8,47.18,6c0,0-36,5.1-52.6-2.76Z" fill="#6fb768"/><path d="M957.66,447s3.92,5.79,47.18,5.94c0,0-38.89,4.69-55.49-3.16Z" fill="#6fb768"/><path d="M690.66,762.09s1.75,7.36,52.21,18.51c0,0-43.63-3.16-60.55-16.59Z" fill="#6fb768"/><path d="M719.69,752s-1.18-15.49,47.38-59.64c0,0-50.33,35.09-57.48,63.69Z" fill="#6fb768"/><path d="M806.93,718.83s-4.47-8.66,38.15-50.6c0,0-42.38,30.92-48.4,55Z" fill="#6fb768"/><path d="M888.81,683.62s-3.17-6.15,27.08-35.91c0,0-30.08,21.95-34.35,39Z" fill="#6fb768"/><path d="M931.4,558.9s-3.17-6.15,27.08-35.91c0,0-30.08,21.94-34.35,39Z" fill="#6fb768"/><path d="M936.07,455.66s-3.28-7.86,27-37.62c0,0-30.08,23.48-34.36,40.57Z" fill="#6fb768"/><path d="M978.88,332.39s-2-7.79,28.27-37.55c0,0-30.08,21.94-34.35,39Z" fill="#6fb768"/><path d="M689.81,155.8s-5.57,4.09-39.68-21.17c0,0,26.36,26.31,43.91,27.87Z" fill="#6fb768"/><path d="M967.9,225.8s-3.17-6.15,27.08-35.91c0,0-30.08,21.94-34.35,39Z" fill="#6fb768"/><path d="M682.39,137s6.44-2.52,3.37-44.84c0,0,8.1,36.34,0,52Z" fill="#6fb768"/><path d="M763,88.32s6.44-2.52,3.38-44.85c0,0,8.1,36.35,0,52Z" fill="#6fb768"/><path d="M622.13,780s-3.31-10.85,56-53.33c0,0-56.29,28-68.71,55.3Z" fill="#6fb768"/><path d="M720.51,392.76S640.67,308.35,575,163.24c0,0,24.65,90.36,141,239.79Z" fill="#6fb768"/><path d="M680.29,346.57s-10.92,6.28-71.88-34.89c0,0,44.52,42.77,77.21,45.86Z" fill="#6fb768"/><path d="M615.45,249.72s-11.24,5.67-69.87-38.76c0,0,42.12,45.13,74.6,50Z" fill="#6fb768"/><path d="M651.42,310.57s10.94-6.23,6.3-79.65c0,0,14.34,60.05.46,89.8Z" fill="#6fb768"/><path d="M621.28,258.72s10.94-6.23,6.3-79.65c0,0,14.34,60.05.46,89.8Z" fill="#6fb768"/><path d="M690.37,366.18s10.94-6.23,6.3-79.65c0,0,14.34,60,.45,89.8Z" fill="#6fb768"/><path d="M773,271.85S710.57,203.21,664.35,97.27c0,0,17,74.24,105.21,180.29Z" fill="#6fb768"/><path d="M747.87,251s-5,7.87-58.94,2.12c0,0,43.82,12.48,66.21,3.19Z" fill="#6fb768"/><path d="M717.31,209.36s-4.94,7.87-58.94,2.12c0,0,43.83,12.48,66.21,3.19Z" fill="#6fb768"/><path d="M720.8,206s8.07-4.6,4.65-58.79c0,0,10.58,44.32.34,66.29Z" fill="#6fb768"/><path d="M749.54,247.06s8.08-4.6,4.66-58.79c0,0,10.58,44.32.33,66.28Z" fill="#6fb768"/><path d="M812.53,169.58S774,118.05,749,42.65c0,0,7.08,52.89,60.82,131Z" fill="#6fb768"/><path d="M796.51,153.08s-3.88,5.08-40.47-2.24c0,0,29.21,11.29,45.11,6.33Z" fill="#6fb768"/><path d="M778.21,122.68s-3.88,5.08-40.47-2.24c0,0,29.21,11.29,45.11,6.33Z" fill="#6fb768"/><path d="M767.77,96.93s-8,3.78-39.74-15.9c0,0,26.8,21.61,43.43,22.54Z" fill="#6fb768"/><path d="M780.8,120.61s5.82-2.64,6.87-39.95c0,0,4.47,31-3.92,45.39Z" fill="#6fb768"/><path d="M797.9,150.5s5.82-2.64,6.87-39.94c0,0,4.47,31-3.92,45.38Z" fill="#6fb768"/><path d="M817.47,164.63s71.86-13.69,138-44.34c0,0-31.9,27.23-138,50Z" fill="#6fb768"/><path d="M856.16,160.62s-.95,6.32,29.75,27.52c0,0-28.42-13.14-35.92-28Z" fill="#6fb768"/><path d="M884.83,152.7s.69,6.35,35.78,19c0,0-30.83-5.46-41.87-17.94Z" fill="#6fb768"/><path d="M919.12,139.34s1.66,6.17,38.3,13.27c0,0-31.31-.63-44.15-11.25Z" fill="#6fb768"/><path d="M896.59,144.7s-2.14-6,23.93-32.72c0,0-25.38,18.35-29.89,34.39Z" fill="#6fb768"/><path d="M843.93,160.14s-2.15-6,23.92-32.71c0,0-25.38,18.34-29.88,34.38Z" fill="#6fb768"/><path d="M665.76,512.53s-98-104.62-164.25-286.3c0,0,41.18,150.64,161.87,295.66Z" fill="#6fb768"/><path d="M646.84,494.46s-10.83,6.66-73.55-33.09c0,0,46.17,41.84,79.25,44Z" fill="#6fb768"/><path d="M596.59,428.88s-10.71,6.85-74.13-31.76c0,0,46.92,41,80,42.57Z" fill="#6fb768"/><path d="M564.89,367.57s-10.7,6.85-74.13-31.77c0,0,46.92,41,80,42.57Z" fill="#6fb768"/><path d="M529.86,301.38s-8.72,5.16-58.19-27.33c0,0,36.26,33.95,62.59,36.1Z" fill="#6fb768"/><path d="M545.3,335.87s11-6.29,6.36-80.4c0,0,14.48,60.61.46,90.65Z" fill="#6fb768"/><path d="M635.17,479.53s10.31-7.44-2.3-80.62c0,0,20.9,58.71,10.19,90.07Z" fill="#6fb768"/><path d="M589,406.71s11.48-5.45,12.36-79.7c0,0,9.9,61.52-6.32,90.42Z" fill="#6fb768"/><path d="M602.47,660.5S508.42,543.69,438.71,340.15c0,0,38.09,167.6,161.13,327.07Z" fill="#6fb768"/><path d="M581.78,638.54s-10.65,6.94-74.38-31.17c0,0,47.24,40.63,80.36,41.93Z" fill="#6fb768"/><path d="M518,535.91s-10.66,6.93-74.39-31.18c0,0,47.25,40.64,80.37,41.94Z" fill="#6fb768"/><path d="M465.48,418.07s-13.82,5.67-69.16-43.84c0,0,40.91,46.77,73.18,54.33Z" fill="#6fb768"/><path d="M479.89,448.52s6.63-4.7,11.45-78.8c0,0,9.23,60.09-8.51,88.09Z" fill="#6fb768"/><path d="M511,520.21s11.76-4.83,16.58-78.92c0,0,6.61,62-11.12,90Z" fill="#6fb768"/><path d="M570.27,622.81S582,618,586.85,543.88c0,0,6.62,62-11.12,90Z" fill="#6fb768"/><path d="M544.26,570.78S556,566,560.84,491.86c0,0,6.62,62-11.12,90Z" fill="#6fb768"/><path d="M553.43,784.66S452.46,665.38,374.09,450c0,0,46.43,180,177.61,344.25Z" fill="#6fb768"/><path d="M509.49,732.67s-12.54,9.13-79.6-43c0,0,47.72,49.25,83.88,54Z" fill="#6fb768"/><path d="M457.06,641.2s-8.59,7.35-79.23-46.33c0,0,46.77,50.15,82.84,55.57Z" fill="#6fb768"/><path d="M414,556.08s-10.3,4.29-59.2-38.75c0,0,34.28,42.59,62.64,49Z" fill="#6fb768"/><path d="M433.09,598.32s9-4.53,8.25-63.2c0,0,9,48.42-3.28,71.56Z" fill="#6fb768"/><path d="M405.34,535.37s7.5-3.79,6.9-52.89c0,0,7.52,40.52-2.74,59.88Z" fill="#6fb768"/><path d="M471.09,669.58s12.49-6.3,11.49-88c0,0,12.52,67.42-4.56,99.64Z" fill="#6fb768"/><path d="M525.69,752.79s8.42-27.23-10.8-83.39c0,0,28.59,59.61,17.72,95Z" fill="#6fb768"/><path d="M150.76,82.28S140.68,33.37,184.1,7.59c0,0,53.65-26,83.68,30.8,0,0,12.19-41.44,56.08-36.57,0,0,53.63,2.44,43.88,56.08,0,0,20.67-25.92,51.2-12.19C452.18,60.65,443.32,92,443.32,92s22.3-26.76,53.64-9.75c20.81,11.29,20,40.53,15.52,57,0,0,25.92-18,47.86,1.52,22.25,19.77,2.44,58.51,2.44,58.51s21.94-24.38,48.76-2.44c29.29,24,2.44,65.83,2.44,65.83s18.12-31.37,51.2-7.32c26.82,19.51,4.87,68.27,4.87,68.27s23.26-19.25,43.89,12.19c17.94,27.34-2.44,65.82-2.44,65.82s24.38-31.69,43.88,19.51c9.85,25.86-21.94,78-21.94,78,3.5,5.76,34.13-7.31,19.5,56.08-12.86,55.73-47,118.06-105.53,198.51-62,85.31-87.78,112.17-97.16,115.6-14.1,5.15-18.12,7.41-18.12,7.41s-29.62-3.34-94.83-22.22c-176-51-232.09-94.84-232.09-94.84s-80.45-46.32-109.71-100a55.14,55.14,0,0,1,.81-55.55s-44.78-23.72-57.7-51.39c-17.06-36.57,22-48.76,22-48.76S13.41,488.78,4.48,455.29C-6.26,415,33.74,411.41,33.74,411.41S8.44,402.87,2,377.27c-12.19-48.76,34.14-53.63,34.14-53.63S-9.39,304.07,5.44,267.57c11-27.2,50.24-24.39,50.24-24.39S28,223.19,36.18,192c12.19-46.33,63.38-26.82,63.38-26.82s-32.19-32.6-14.62-63.39C104.3,67.84,150.76,82.28,150.76,82.28Z" fill="url(#Ikke-navngivet_forløb_464-2)"/><path d="M207.58,41.5S254,155.64,277.31,212.15s108.32,259,157.86,377.94c16.9,40.57,58.23,147.45,95.82,281.38,14.32,51,20.94,99.89,56,188.06,0,0,13.82,21.13,34.14,13,7.16-2.86,11.38-10.57,4.07-24.38,0,0-51.89-95.76-74.37-182.82s-78-230.21-110.27-302.26c-20-44.56-119.85-272.75-135.39-308.61S219.71,59.94,207.58,41.5Z" fill="#6fb768"/><path d="M355.62,403.31S238.13,393.05,67,320c0,0,109.94,66.81,295.13,92.09Z" fill="#6fb768"/><path d="M285.64,396.65s-1.58,12.49-71.18,36.31c0,0,61-9.74,83.14-33.95Z" fill="#6fb768"/><path d="M213.36,378.55s-2.5,12.34-73.67,30.94c0,0,61.52-5.19,85.42-27.7Z" fill="#6fb768"/><path d="M131.54,349s-1.86,9.22-55.06,23.12c0,0,46-3.88,63.85-20.7Z" fill="#6fb768"/><path d="M240.92,383.05s3.86-12-49.12-63c0,0,51.12,34.61,61,65.94Z" fill="#6fb768"/><path d="M159.32,359.21s2.79-8.67-35.54-45.59c0,0,37,25,44.1,47.71Z" fill="#6fb768"/><path d="M307.2,397.79s3.86-12-49.13-63c0,0,51.12,34.62,61,65.94Z" fill="#6fb768"/><path d="M305.43,275.56s-73,0-229.27-65c0,0,82.13,53.61,230.39,73.25Z" fill="#6fb768"/><path d="M269.41,274.9s1.86,9.08-41,42.14c0,0,40.18-21.2,49.91-43.32Z" fill="#6fb768"/><path d="M218.71,266s1.86,9.08-41,42.14c0,0,40.18-21.2,49.91-43.33Z" fill="#6fb768"/><path d="M172.27,251.55s-1,9.21-51.78,27.86c0,0,44.7-8.15,60.62-26.32Z" fill="#6fb768"/><path d="M218.92,261.14s2.64-8.88-37.16-45.57c0,0,38.17,24.65,45.91,47.54Z" fill="#6fb768"/><path d="M164.83,249s2.65-8.88-37.15-45.58c0,0,38.16,24.65,45.91,47.54Z" fill="#6fb768"/><path d="M267.91,270.92s2.65-8.89-37.15-45.58c0,0,38.16,24.65,45.91,47.54Z" fill="#6fb768"/><path d="M418.44,538.37S231.25,501,73.06,426.93c0,0,152.8,85.37,346.9,120.57Z" fill="#6fb768"/><path d="M358.42,531s-1.75,12.47-71.68,35.29c0,0,61.09-8.86,83.61-32.76Z" fill="#6fb768"/><path d="M271.11,506.19s-3.2,12.18-75.32,26.66c0,0,61.71-1.66,86.87-22.76Z" fill="#6fb768"/><path d="M186.63,475.75s-6.11,11-79.58,7.22c0,0,60.21,13.65,89.8-.57Z" fill="#6fb768"/><path d="M234.28,497.22s4.29-11.84-46.81-64.75c0,0,49.83,36.44,58.54,68.1Z" fill="#6fb768"/><path d="M330,522.92s4.29-11.84-46.81-64.75c0,0,49.83,36.44,58.54,68.1Z" fill="#6fb768"/><path d="M466.72,660.07s-120.31-.74-348-113.36c0,0,151.24,98.78,349.47,124.43Z" fill="#6fb768"/><path d="M363.48,647.84s-3.32,12.15-75.58,25.9c0,0,61.72-1,87.09-21.88Z" fill="#6fb768"/><path d="M419.79,659.59s-1.52,12.5-71,36.59c0,0,60.92-10,83-34.28Z" fill="#6fb768"/><path d="M269.44,620s-3.33,12.15-75.61,25.85c0,0,61.73-1,87.12-21.81Z" fill="#6fb768"/><path d="M219.21,594.82s-2.43,8.86-55.17,18.86c0,0,45-.72,63.57-15.92Z" fill="#6fb768"/><path d="M301.64,624.73s5.16-11.48-41.87-68.05c0,0,47,40.05,53.32,72.27Z" fill="#6fb768"/><path d="M199.14,586.08s5.16-11.49-41.87-68.05c0,0,47,40,53.32,72.26Z" fill="#6fb768"/><path d="M405.12,653.18s5.16-11.48-41.87-68c0,0,47,40,53.32,72.27Z" fill="#6fb768"/><path d="M512.74,789.34s-219-54.1-368.06-126.61c0,0,175.78,99.13,369.58,135.74Z" fill="#6fb768"/><path d="M448.33,780.37s-3.2,7.39-62.8,22.24c0,0,51.85-4.79,69.11-20.81Z" fill="#6fb768"/><path d="M322.06,740.39s-4.73,8.67-65.5,14.69c0,0,51.27,2.33,73.55-10.94Z" fill="#6fb768"/><path d="M236.73,705.45s-3.93,5.8-47.18,5.95c0,0,36,5.09,52.6-2.76Z" fill="#6fb768"/><path d="M125.69,233.94s-3.92,5.8-47.18,5.95c0,0,36,5.09,52.61-2.77Z" fill="#6fb768"/><path d="M177.41,579.21s-3.93,5.8-47.18,5.95c0,0,36,5.09,52.6-2.77Z" fill="#6fb768"/><path d="M119.61,448.4s-3.92,5.8-47.18,6c0,0,38.89,4.69,55.49-3.17Z" fill="#6fb768"/><path d="M386.61,763.52s-1.75,7.35-52.21,18.5c0,0,43.63-3.15,60.56-16.59Z" fill="#6fb768"/><path d="M357.58,753.37s1.19-15.49-47.38-59.63c0,0,50.33,35.09,57.48,63.69Z" fill="#6fb768"/><path d="M270.34,720.25s4.47-8.66-38.15-50.59c0,0,42.38,30.92,48.4,55Z" fill="#6fb768"/><path d="M188.46,685s3.17-6.14-27.08-35.91c0,0,30.08,22,34.35,39Z" fill="#6fb768"/><path d="M145.87,560.32s3.18-6.14-27.08-35.91c0,0,30.08,22,34.36,39Z" fill="#6fb768"/><path d="M141.21,457.09s3.27-7.86-27-37.63c0,0,30.08,23.48,34.36,40.58Z" fill="#6fb768"/><path d="M98.4,333.82s2-7.79-28.28-37.56c0,0,30.08,21.95,34.35,39Z" fill="#6fb768"/><path d="M387.46,157.22s5.58,4.1,39.68-21.16c0,0-26.35,26.3-43.91,27.86Z" fill="#6fb768"/><path d="M109.37,227.22s3.17-6.14-27.08-35.91c0,0,30.08,21.95,34.35,39Z" fill="#6fb768"/><path d="M394.89,138.42s-6.45-2.52-3.38-44.85c0,0-8.1,36.34,0,52Z" fill="#6fb768"/><path d="M314.27,89.75s-6.44-2.52-3.37-44.85c0,0-8.1,36.34,0,52Z" fill="#6fb768"/><path d="M455.14,781.43s3.31-10.86-56-53.34c0,0,56.29,28,68.71,55.3Z" fill="#6fb768"/><path d="M356.76,394.19s79.84-84.41,145.57-229.52c0,0-24.66,90.36-141,239.78Z" fill="#6fb768"/><path d="M397,348s10.92,6.28,71.88-34.89c0,0-44.52,42.76-77.21,45.85Z" fill="#6fb768"/><path d="M461.82,251.15s11.24,5.67,69.87-38.76c0,0-42.12,45.13-74.59,50Z" fill="#6fb768"/><path d="M425.85,312s-10.94-6.24-6.3-79.65c0,0-14.34,60-.45,89.8Z" fill="#6fb768"/><path d="M456,260.15s-10.94-6.24-6.3-79.65c0,0-14.34,60-.46,89.8Z" fill="#6fb768"/><path d="M386.91,367.61S376,361.37,380.6,288c0,0-14.34,60.05-.45,89.81Z" fill="#6fb768"/><path d="M304.29,273.28S366.7,204.64,412.92,98.69c0,0-17,74.25-105.21,180.29Z" fill="#6fb768"/><path d="M329.4,252.41s5,7.87,58.94,2.12c0,0-43.82,12.48-66.21,3.19Z" fill="#6fb768"/><path d="M360,210.79s5,7.87,58.94,2.12c0,0-43.83,12.48-66.21,3.18Z" fill="#6fb768"/><path d="M356.47,207.44s-8.07-4.6-4.65-58.79c0,0-10.58,44.32-.33,66.28Z" fill="#6fb768"/><path d="M327.73,248.48s-8.08-4.6-4.65-58.79c0,0-10.59,44.32-.34,66.28Z" fill="#6fb768"/><path d="M264.75,171s38.54-51.53,63.53-126.94c0,0-7.07,52.9-60.82,131Z" fill="#6fb768"/><path d="M280.76,154.51s3.88,5.07,40.47-2.25c0,0-29.21,11.29-45.11,6.34Z" fill="#6fb768"/><path d="M299.07,124.11s3.87,5.07,40.47-2.25c0,0-29.21,11.29-45.12,6.34Z" fill="#6fb768"/><path d="M309.5,98.36s8,3.77,39.74-15.91c0,0-26.8,21.62-43.43,22.55Z" fill="#6fb768"/><path d="M296.47,122s-5.81-2.64-6.87-39.94c0,0-4.46,31,3.93,45.38Z" fill="#6fb768"/><path d="M279.37,151.93s-5.82-2.65-6.87-39.95c0,0-4.47,31,3.92,45.39Z" fill="#6fb768"/><path d="M259.8,166.06s-71.86-13.69-138-44.35c0,0,31.9,27.24,138,50.05Z" fill="#6fb768"/><path d="M221.11,162.05s1,6.31-29.75,27.52c0,0,28.42-13.14,35.92-28Z" fill="#6fb768"/><path d="M192.45,154.12s-.69,6.35-35.79,19c0,0,30.84-5.46,41.88-17.93Z" fill="#6fb768"/><path d="M158.15,140.76s-1.66,6.17-38.3,13.27c0,0,31.31-.63,44.15-11.24Z" fill="#6fb768"/><path d="M180.68,146.12s2.15-6-23.93-32.71c0,0,25.38,18.34,29.89,34.38Z" fill="#6fb768"/><path d="M233.35,161.57s2.14-6-23.93-32.72c0,0,25.38,18.35,29.88,34.38Z" fill="#6fb768"/><path d="M411.51,514s98-104.62,164.25-286.3c0,0-41.18,150.65-161.86,295.67Z" fill="#6fb768"/><path d="M430.43,495.89s10.83,6.65,73.55-33.09c0,0-46.17,41.84-79.25,44Z" fill="#6fb768"/><path d="M480.68,430.31s10.71,6.85,74.13-31.77c0,0-46.92,41-80,42.57Z" fill="#6fb768"/><path d="M512.38,369s10.71,6.85,74.13-31.76c0,0-46.92,41-80,42.57Z" fill="#6fb768"/><path d="M547.41,302.8s8.72,5.17,58.19-27.33c0,0-36.26,33.95-62.59,36.1Z" fill="#6fb768"/><path d="M532,337.29s-11-6.29-6.36-80.4c0,0-14.47,60.61-.46,90.65Z" fill="#6fb768"/><path d="M442.1,481s-10.31-7.44,2.3-80.62c0,0-20.9,58.71-10.18,90.08Z" fill="#6fb768"/><path d="M488.23,408.13s-11.48-5.45-12.36-79.7c0,0-9.9,61.53,6.33,90.43Z" fill="#6fb768"/><path d="M474.8,661.93s94.05-116.81,163.77-320.36c0,0-38.1,167.6-161.14,327.07Z" fill="#6fb768"/><path d="M495.49,640s10.65,6.93,74.38-31.18c0,0-47.24,40.64-80.36,41.94Z" fill="#6fb768"/><path d="M559.25,537.33s10.65,6.94,74.38-31.17c0,0-47.25,40.63-80.37,41.93Z" fill="#6fb768"/><path d="M611.79,419.49s13.82,5.67,69.16-43.84c0,0-40.91,46.77-73.18,54.33Z" fill="#6fb768"/><path d="M597.39,449.94s-6.64-4.7-11.46-78.79c0,0-9.22,60.08,8.51,88.08Z" fill="#6fb768"/><path d="M566.3,521.64s-11.75-4.83-16.58-78.93c0,0-6.61,62,11.12,90Z" fill="#6fb768"/><path d="M507,624.23s-11.76-4.83-16.58-78.93c0,0-6.62,62,11.12,90Z" fill="#6fb768"/><path d="M533,572.21s-11.76-4.83-16.58-78.93c0,0-6.62,62,11.12,90Z" fill="#6fb768"/><path d="M523.84,786.08s101-119.28,179.34-334.64c0,0-46.43,180-177.61,344.25Z" fill="#6fb768"/><path d="M567.78,734.1s12.55,9.12,79.6-43c0,0-47.72,49.24-83.88,54Z" fill="#6fb768"/><path d="M620.21,642.63s8.59,7.34,79.23-46.33c0,0-46.77,50.14-82.84,55.56Z" fill="#6fb768"/><path d="M663.24,557.51s10.29,4.28,59.19-38.75c0,0-34.28,42.58-62.64,49Z" fill="#6fb768"/><path d="M644.19,599.74s-9-4.52-8.26-63.19c0,0-9,48.41,3.28,71.55Z" fill="#6fb768"/><path d="M671.93,536.79s-7.5-3.78-6.9-52.88c0,0-7.52,40.51,2.74,59.88Z" fill="#6fb768"/><path d="M606.18,671s-12.49-6.29-11.49-88c0,0-12.52,67.41,4.57,99.64Z" fill="#6fb768"/><path d="M551.58,754.21s-8.42-27.23,10.8-83.38c0,0-28.59,59.61-17.72,95Z" fill="#6fb768"/><path d="M1211.47,1034c-2.58,10.87-10.33,19.57-27,19.57-8.69,0-22.29-1.22-27-14.82-5.85-16.17-5.85-25.42-5.58-40.23.14-6.93.41-10.74.55-13.87.13-3.8,1.08-7.34,1.76-11.41,2.31-14.68,11.42-23,27.32-23,17.67,0,27.6,9,29.5,21.47.82,5,2.18,12.78.68,13.87a16.19,16.19,0,0,1-8,1.49l-8.16-.41a73.51,73.51,0,0,0-.54-8.7c-1-7.06-3.94-12.91-11.55-12.91-6.8,0-10.2,4.21-10.74,14.82-.14,8.7-.95,14.27-1.36,21.07a113.05,113.05,0,0,0,1.49,29c1.91,7.61,7.75,8.56,11.42,8.56,5.17,0,10.33-3.81,11.15-12.91l.13-9c-4.48,0-9.24.27-12.09-.27v-9c0-1.63.13-3.67,3.12-3.39,5.17.4,12.37.4,16.45.81,2.58.27,9.79-.13,10.06,4.62C1213.24,1016.17,1212.43,1029.35,1211.47,1034Z" fill="#4a7645"/><path d="M1288.27,1018.62c0,5.3-2.31,16-3.81,19.43-4.35,9.38-12,15.23-22.83,15.23-6.8,0-12.64-.82-17.13-2.72l-2.72,4.35c-1.63,2.72-6.39,1.22-8.15-1.36-1-1.36-.82-2.18-.41-3,1.36-2,2.72-4.08,4.08-6-.41-.68-.82-1.36-1.23-2.18a70.34,70.34,0,0,1-5.57-24.87c-.13-3.26,0-13.32,4.08-21.34,5.16-9.24,13.18-14.82,22.56-14.82,7.07,0,12.24.68,16.59,2.72,4.07-6.93,5-7.48,6.52-6.39l5.57,4.08c-1.76,3.13-3.26,5.84-4.89,8.56.81,1.09,1.63,2.45,2.45,3.81C1289.08,1005.3,1288.27,1013,1288.27,1018.62Zm-39.69,7.88c3.53-6,6.39-11,8.29-14.14,3.94-6.25,6.25-10.05,9.38-15.49a9.63,9.63,0,0,0-6.8-2.31c-6.66,0-9.92,5.16-11.14,15.36-.41,2.31-.27,6.39,0,12.91A32.36,32.36,0,0,0,1248.58,1026.5Zm21.88-19v-.27c-1,1.49-1.9,3-2.85,4.62-3,4.89-8.56,14.54-14.95,25.42a8.83,8.83,0,0,0,6.66,2.85c5.71,0,9.78-3.8,10.74-12A150,150,0,0,0,1270.46,1007.47Z" fill="#4a7645"/><path d="M1347.12,981.1v11.42c0,7.47-3.53,8.43-4.48,8.29-2.58-.41-6.39-1.36-9.24-1.63-4.08-.41-6.67,2.58-8.57,6.93-.54,10.33-.27,18.49-.13,21.75.54,8.43.13,17.67.13,18.89,0,7.48-10.06,5.44-16,5.44-2.72,0-1.76-2.45-1.9-5s.14-7.34-.14-11.55c-.4-4.63.41-26,.41-30,0-4.22-.81-12.37-.41-22.29a87.43,87.43,0,0,1,12.78-.68,38.46,38.46,0,0,1,3.94,6.52c3.54-4.49,8.16-8.56,13.6-9C1341.69,979.74,1344,980,1347.12,981.1Z" fill="#4a7645"/><path d="M1448.93,986.81c-.27,1.36-3.94,14-5.71,21.88-.54,1.77-4.89,13.87-8.29,27.6-1.22,4.89-4.08,13.72-5.3,15.9-2.86,1.77-10.74-.68-15.36,0-4.21-.14-5.57-3.81-8.43-20.12-.81-4.08-12-37.78-13.32-47.44,3-1.76,3.67-1.76,8.56-1.76,3.4,0,10.2-1.23,10.74,1.76.14,4.08,4.08,27.73,7.89,41.19.68,2.45,1.35,4.08,1.76,5.44a69.25,69.25,0,0,0,3.13-12.24c1-6.79,2.45-14.95,3.67-21.74,1.9-6,1.77-14.68,6.39-14.68,3.4,0,7.2-.41,10.33-.14C1447.44,982.6,1449.34,983.55,1448.93,986.81Z" fill="#4a7645"/><path d="M1515.53,1028.27c.41,8.15.14,17.39.14,18.62,0,7.07-6.66,5.44-12.64,5.3-.82,0-2.18-3-3.26-6.39-4.35,4.08-9.79,7.48-16.45,7.48-8.84,0-15-1.63-19.17-8.84-1.63-2.72-2.31-6.93-2.31-11.42,0-6.66,1.63-14,4.76-17.67,6-7.06,9.24-9,19.17-9a17.08,17.08,0,0,1,12.09,4.49c.14-2.86.28-5.3.28-6.8.27-4.48-2.45-11.28-8.57-11.42-10.46-.27-14.81,3.67-16.58,6-4.9-1.9-6-3.12-6.93-6.52.13-3,1.9-6.39,7.2-9.65,3.94-2.45,9.92-3.53,16-3.53,12.37,0,20,6.25,22,10.33C1517.71,1002.85,1515.4,1025.82,1515.53,1028.27Zm-17.94,4.48c0-2.85,0-6.11.14-9.51-1.63-3.54-4.49-6.66-9-6.66-8.16,0-10.33,9-10.33,15.36s5.3,8.7,9.92,8.7S1496.1,1036.69,1497.59,1032.75Z" fill="#4a7645"/><path d="M1539.46,1044.58c0-2.45.27-8.7-.28-12.78-.4-4.62.55-22.43.55-26.37,0-4.35-.68-38.74-.41-48.52,3.26-.68,3.67-1.36,8.56-1.36,3.54,0,10.6.27,10.2,6.93-.68,3.94-.41,22.43-.41,36.29,0,14.27-.68,27.32-.54,29.22.4,8.3.13,18.9.13,20.12,0,5.71-10.06,4.08-15,4.08C1538.64,1052.19,1539.46,1047,1539.46,1044.58Z" fill="#4a7645"/><path d="M1629.3,1070.54a25.27,25.27,0,0,1-15.36,9.24,72,72,0,0,1-13.18,1.23c-6.26-.14-14.41-2.86-17.4-5.71-2.18-1.91-.82-7.48,1.49-10.47,1.36-2,2.31-2.85,3.81-2.85,3.4,2.31,7.2,4.62,13.18,4.62,10.2,0,13.6-7.75,13.6-12.37V1047c-4.08,4.49-8.7,7.62-13.32,7.62-9.52,0-16.18-1.64-20.53-12.1-1.49-3.67-3.53-11.83-4.08-23.65-.13-3.26,1.5-17.94,4.9-23.38,6.25-10.2,10.87-12.78,19.57-12.78,7.2,0,11.83,3,15.36,8,1.09-3.53,2.58-6.52,3.4-6.52,6.39,0,12.64-1.91,12.64,5.43,0,1.09.54,9.93,0,18.08-.27,2.45.13,20.8.41,37.92C1634.06,1057.08,1633,1065.92,1629.3,1070.54Zm-13.73-41.19c-.13-5-.68-20.11-.54-26.77-2.18-4-5.71-6.8-9.11-6.8-5.84,0-9.51,6.12-10.74,14.68a60.4,60.4,0,0,0,.28,14.68c1.08,9.92,5.43,15.5,10.73,15.5C1609.59,1040.5,1613.13,1035.33,1615.57,1029.35Z" fill="#4a7645"/><path d="M1669.67,1023.24v1.49c.41,10.33,4.48,15.63,9.65,15.63,4.89,0,8.83-5.57,12.91-10.19a3.72,3.72,0,0,1,5.44-.27c3,3,7.07,5.71,4.89,9.78-5.3,9.65-11.28,14.68-21.2,14.68-11.69,0-20.8-3.12-24.88-13.18-1.49-3.67-3.8-10.74-4.34-22.43A49.39,49.39,0,0,1,1655,998.5c4.08-8.43,14.68-17.26,23.24-17.26,13.19-.14,21.34,4.89,25.69,19.84,1.77,6.25,2.72,15.77-.54,20l-6.53.68C1688.56,1023.51,1680.14,1023.92,1669.67,1023.24Zm18.62-12.51c1.9,0,2.18-2.72,1.9-5.71-.81-6.93-3.53-13.32-10.19-13.32-4.89,0-9.65,6.39-10.47,18.9C1675.79,1010.46,1685.57,1010.73,1688.29,1010.73Z" fill="#4a7645"/><path d="M1761.28,1040.36c2.31,3.27,2.86,7.89,1.09,9.79-3.26,3.26-8.7,5.44-17.4,5.44-5.71,0-14.68-3.54-14.14-20.66l-.41-12.1c0-1.22-.4-10.47,0-18.62a59.3,59.3,0,0,0,.28-6.53c-4.63.14-8.84.14-9.52-.81a7.21,7.21,0,0,1-1-5.85l1-7.34c3.26.14,6.66.14,9.52.14,0-3.13-.14-6.39-.28-9.79-.13-3.67-.54-9.24,1.09-11s7.61-4.48,17-3c.41,10.06-.27,17.94-.27,22.29v1.5c6.8,0,14,.14,14.68.54.95.95.68,5.58.27,9.52l-.68,3.26c-4.21-.14-9.65-.27-13.73-.27.14,6.39.41,13,.14,15.49-.54,4.22-.27,17.67-.27,20.12,0,5.3,1.77,7.2,3.4,7.61,2.17.41,3.4-.68,5.16-1.9C1759.24,1037.65,1760.33,1038.73,1761.28,1040.36Z" fill="#4a7645"/><path d="M1863.09,1070.54a25.27,25.27,0,0,1-15.36,9.24,72.09,72.09,0,0,1-13.19,1.23c-6.25-.14-14.41-2.86-17.4-5.71-2.17-1.91-.81-7.48,1.5-10.47,1.36-2,2.31-2.85,3.8-2.85,3.4,2.31,7.21,4.62,13.19,4.62,10.19,0,13.59-7.75,13.59-12.37V1047c-4.08,4.49-8.7,7.62-13.32,7.62-9.51,0-16.17-1.64-20.52-12.1-1.5-3.67-3.54-11.83-4.08-23.65-.14-3.26,1.49-17.94,4.89-23.38,6.25-10.2,10.87-12.78,19.57-12.78,7.21,0,11.83,3,15.36,8,1.09-3.53,2.59-6.52,3.4-6.52,6.39,0,12.64-1.91,12.64,5.43,0,1.09.55,9.93,0,18.08-.27,2.45.14,20.8.41,37.92C1867.84,1057.08,1866.76,1065.92,1863.09,1070.54Zm-13.73-41.19c-.14-5-.68-20.11-.55-26.77-2.17-4-5.71-6.8-9.1-6.8-5.85,0-9.52,6.12-10.74,14.68a59.73,59.73,0,0,0,.27,14.68c1.09,9.92,5.44,15.5,10.74,15.5C1843.38,1040.5,1846.91,1035.33,1849.36,1029.35Z" fill="#4a7645"/><path d="M1929.28,981.1v11.42c0,7.47-3.53,8.43-4.49,8.29-2.58-.41-6.39-1.36-9.24-1.63-4.08-.41-6.66,2.58-8.56,6.93-.55,10.33-.27,18.49-.14,21.75.54,8.43.14,17.67.14,18.89,0,7.48-10.06,5.44-16,5.44-2.72,0-1.77-2.45-1.9-5s.13-7.34-.14-11.55c-.41-4.63.41-26,.41-30,0-4.22-.82-12.37-.41-22.29a87.43,87.43,0,0,1,12.78-.68,39.8,39.8,0,0,1,3.94,6.52c3.53-4.49,8.15-8.56,13.59-9C1923.84,979.74,1926.15,980,1929.28,981.1Z" fill="#4a7645"/><path d="M1999.28,1018.62c0,5.3-2.31,16-3.8,19.43-4.35,9.38-12,15.23-22.84,15.23-6.8,0-12.64-.82-17.13-2.72l-2.71,4.35c-1.64,2.72-6.39,1.22-8.16-1.36-1-1.36-.82-2.18-.41-3,1.36-2,2.72-4.08,4.08-6-.41-.68-.82-1.36-1.22-2.18a70.09,70.09,0,0,1-5.58-24.87c-.13-3.26,0-13.32,4.08-21.34,5.17-9.24,13.19-14.82,22.56-14.82,7.07,0,12.24.68,16.59,2.72,4.07-6.93,5-7.48,6.52-6.39l5.57,4.08c-1.76,3.13-3.26,5.84-4.89,8.56.82,1.09,1.63,2.45,2.45,3.81C2000.1,1005.3,1999.28,1013,1999.28,1018.62Zm-39.69,7.88c3.54-6,6.39-11,8.29-14.14,3.94-6.25,6.26-10.05,9.38-15.49a9.62,9.62,0,0,0-6.79-2.31c-6.66,0-9.93,5.16-11.15,15.36-.41,2.31-.27,6.39,0,12.91A34.84,34.84,0,0,0,1959.59,1026.5Zm21.89-19v-.27c-1,1.49-1.91,3-2.86,4.62-3,4.89-8.56,14.54-14.95,25.42a8.86,8.86,0,0,0,6.66,2.85c5.71,0,9.79-3.8,10.74-12A151.63,151.63,0,0,0,1981.48,1007.47Z" fill="#4a7645"/><path d="M2071.73,1021.06c-.55,12-.27,23.93-.27,25.56,0,5.84-5.71,6.25-12.24,6.25l-4.89-.68c-.41-4.89-.54-30.58-.54-34.93,0-6,2.17-21.48-7.21-21.48-4.62,0-8.15,4.62-10.6,10.06a198.93,198.93,0,0,0-.14,22c.55,8.43,0,17.67,0,18.89,0,7.48-10,5.44-16,5.44-2.59,0-1.77-2.45-1.77-5s.13-7.34-.27-11.55c-.41-4.63.54-26,.54-30,0-4.22-.68-12.37-.41-22.29a85.24,85.24,0,0,1,12.78-.68,30.12,30.12,0,0,1,4.48,8c3.95-5,9.25-9.79,15.77-10.47,5.57-.41,14.68,1.77,17.13,6.12,3,5.7,3.53,7.74,3.67,13.18C2072,1004.62,2072.14,1014.54,2071.73,1021.06Z" fill="#4a7645"/><path d="M2131.67,1040.36c2.31,3.27,2.86,7.89,1.09,9.79-3.26,3.26-8.7,5.44-17.4,5.44-5.71,0-14.68-3.54-14.14-20.66l-.41-12.1c0-1.22-.4-10.47,0-18.62a59.3,59.3,0,0,0,.28-6.53c-4.62.14-8.84.14-9.52-.81a7.21,7.21,0,0,1-1-5.85l1-7.34c3.26.14,6.66.14,9.52.14,0-3.13-.14-6.39-.28-9.79-.13-3.67-.54-9.24,1.09-11s7.61-4.48,17-3c.41,10.06-.27,17.94-.27,22.29v1.5c6.8,0,14,.14,14.68.54.95.95.68,5.58.27,9.52l-.68,3.26c-4.21-.14-9.65-.27-13.73-.27.14,6.39.41,13,.14,15.49-.54,4.22-.27,17.67-.27,20.12,0,5.3,1.77,7.2,3.4,7.61,2.17.41,3.4-.68,5.16-1.9C2129.63,1037.65,2130.72,1038.73,2131.67,1040.36Z" fill="#4a7645"/><rect x="1659.53" y="635.07" width="251.93" height="251.93" rx="21.91" fill="none"/><path d="M1889.55,899.44H1681.43a34.39,34.39,0,0,1-34.34-34.34V657a34.38,34.38,0,0,1,34.34-34.34h208.12A34.37,34.37,0,0,1,1923.89,657V865.1A34.38,34.38,0,0,1,1889.55,899.44ZM1681.43,647.5A9.49,9.49,0,0,0,1672,657V865.1a9.48,9.48,0,0,0,9.47,9.47h208.12a9.49,9.49,0,0,0,9.48-9.47V657a9.49,9.49,0,0,0-9.48-9.48Z" fill="#2a1000"/><path d="M1720.68,854.14a25.17,25.17,0,0,1-17.7-43.06L1914.53,601.8a25.17,25.17,0,0,1,35.4,35.79L1738.38,846.86A25,25,0,0,1,1720.68,854.14Z" fill="#4a7645"/><path d="M1932.23,854.14a25.06,25.06,0,0,1-17.89-7.47L1705.06,635.12a25.17,25.17,0,0,1,35.79-35.4l209.27,211.55a25.17,25.17,0,0,1-17.89,42.87Z" fill="#4a7645"/><path d="M1161.09,547.32V363.48h92.28V406.7h-42.63v26.79H1249v41.56h-38.22v28.1h42.63v44.17Z" fill="#2a1000"/><path d="M1405.29,547.32H1351.6l-24.53-65.48c-.24-1.11-.66-2.58-1.25-4.41s-1.33-4-2.21-6.55L1324,483v64.29h-49.41V363.48h50.84q33.58,0,50.25,13.22,21.18,16.91,21.19,48.1,0,33.34-28.46,46.08Zm-81.08-98.7h3.33a18.2,18.2,0,0,0,14.29-6.55q5.72-6.56,5.72-16.67,0-20.59-21.55-20.6h-1.79Z" fill="#2a1000"/><path d="M1158.67,297.85V240.1q14.65,20,31.67,20a15.77,15.77,0,0,0,10.48-3.39,10.65,10.65,0,0,0,4-8.51q0-7.38-8.81-14.41l-8.1-6.31a110.31,110.31,0,0,1-13.81-12.09,61.9,61.9,0,0,1-9.29-12.38,51.79,51.79,0,0,1-5.23-13.16,59.18,59.18,0,0,1-1.67-14.28q0-12.87,6-26.91a68.31,68.31,0,0,1,6.91-12,50.49,50.49,0,0,1,9-9.58q14-11.91,33.93-11.91,17.75,0,35.72,9.41v56.2A52.67,52.67,0,0,0,1235.71,166q-7.74-5.41-15.24-5.42a13.52,13.52,0,0,0-9.41,3.34,9.79,9.79,0,0,0-3.81,7.74q0,7.38,10.12,14.64l7.86,5.84q15.72,11.31,22.5,23.21t6.91,27.87q0,27.14-16.55,44.77t-41.91,17.62Q1178.68,305.59,1158.67,297.85Z" fill="#2a1000"/><path d="M1405,302.37H1353.7L1350,279h-33.45l-4,23.33h-51.32l44.17-183.84h60.73ZM1358.94,81.86a24,24,0,0,1-23.69,23.82,23.2,23.2,0,0,1-17-7,24.12,24.12,0,0,1-7-17.15,23.82,23.82,0,0,1,40.72-16.78A23.33,23.33,0,0,1,1358.94,81.86Zm-14.76,157.76L1341,218.19a21.6,21.6,0,0,1-.47-3.21q-.24-2.62-2.5-20.72c-.16-1.35-.36-3.19-.6-5.54s-.56-5.29-1-8.87l-1.55-17.38c-.16,1.67-.38,3.53-.66,5.6s-.57,4.32-.89,6.78c-.55,4.92-.95,8.34-1.19,10.24s-.4,3.06-.47,3.46l-3.46,22.26-5,28.81Zm1.19-157.76a10,10,0,0,0-3-7.38,10.27,10.27,0,0,0-14.41-.06,10.14,10.14,0,0,0-2.14,11.19,10.7,10.7,0,0,0,2.2,3.22,10.82,10.82,0,0,0,3.22,2.2,10,10,0,0,0,11.19-2.2A9.81,9.81,0,0,0,1345.37,81.86Z" fill="#2a1000"/><path d="M1479.07,553V369.18h42.86q36.79,0,57.28,19.76,26.89,25.85,26.91,72.27,0,45.74-22.75,70.61Q1564,553,1525.51,553Zm49.65-44.41q26.67-1.31,26.67-46,0-22-6.78-34.76T1530.27,415h-1.55Z" fill="#2a1000"/><path d="M1627.31,553V369.18h92.27V412.4H1677v26.79h38.22v41.55H1677v28.1h42.62V553Z" fill="#2a1000"/><path d="M1805,553H1755.3V413.23h-27.38V369.18h105.49v44.05H1805Z" fill="#2a1000"/><path d="M1157.18,895.3V619.54h71.08l37.32,96.8q3,8.58,6.88,19.65t8.49,25.54l7.68,24.29q-4.11-35.91-6.26-61.44t-2.14-42.87v-62h71.08V895.3h-71.08l-37.5-101.45q-5.89-16.25-10.63-30.45t-8.31-27.06q2.32,29.11,3.4,50.73t1.07,37.86V895.3Z" fill="#2a1000"/><path d="M1502.41,619.54h74.47v195q0,24.46-7.68,39.65-7.5,15.9-25,28.75-23.58,17.14-57.33,17.15-38.22,0-64.12-18.93-32.87-24.12-32.86-77.16V619.54h74.48V797.42q0,18,4.37,25.54t14.74,7.51q10.71,0,14.82-7,4.11-7.32,4.11-25.9Z" fill="#2a1000"/></g></g></svg>