<svg xmlns="http://www.w3.org/2000/svg" xmlns:xlink="http://www.w3.org/1999/xlink" viewBox="0 0 3330.68 1185.43"><defs><style>.cls-1{font-size:135.92px;font-family:Colby-NrBld, Colby NrBld;letter-spacing:0.06em;}.cls-1,.cls-9{fill:#4a7645;}.cls-2{letter-spacing:0.05em;}.cls-3{letter-spacing:0.05em;}.cls-4{letter-spacing:0.05em;}.cls-5{letter-spacing:0.05em;}.cls-6{letter-spacing:0.04em;}.cls-7{fill:#89afaa;}.cls-10,.cls-12,.cls-8{fill:#fff;}.cls-10{font-size:243.85px;}.cls-10,.cls-12{font-family:Futura-CondensedExtraBold, Futura;font-weight:800;}.cls-11{letter-spacing:-0.01em;}.cls-12{font-size:365.77px;}.cls-13{fill:url(#Ikke-navngivet_forløb_464);}.cls-14{fill:#6fb768;}.cls-15{fill:url(#Ikke-navngivet_forløb_464-2);}</style><radialGradient id="Ikke-navngivet_forløb_464" cx="-3748.51" cy="437.67" r="409.22" gradientTransform="matrix(-1, 0, 0, 1, -2872.38, 0)" gradientUnits="userSpaceOnUse"><stop offset="0.02" stop-color="#4d9659"/><stop offset="0.33" stop-color="#459456"/><stop offset="0.82" stop-color="#2f8f4d"/><stop offset="1" stop-color="#258d49"/></radialGradient><radialGradient id="Ikke-navngivet_forløb_464-2" cx="556.13" cy="439.1" r="409.22" gradientTransform="matrix(1, 0, 0, 1, 0, 0)" xlink:href="#Ikke-navngivet_forløb_464"/></defs><title>Logo_2</title><g id="Lag_2" data-name="Lag 2"><g id="Lag_2-2" data-name="Lag 2"><text class="cls-1" transform="translate(1348.13 1024.61)">G<tspan class="cls-2" x="95.82" y="0">ør </tspan><tspan class="cls-3" x="265.73" y="0">v</tspan><tspan class="cls-4" x="337.9" y="0">alget </tspan><tspan class="cls-5" x="697.42" y="0">g</tspan><tspan class="cls-6" x="779.92" y="0">r</tspan><tspan class="cls-2" x="830.35" y="0">ø</tspan><tspan class="cls-3" x="912.31" y="0">n</tspan><tspan class="cls-4" x="994.55" y="0">t</tspan></text><rect class="cls-7" x="1860.88" y="607.46" width="251.93" height="251.93" rx="21.91"/><path class="cls-8" d="M2090.91,871.83H1882.79a34.38,34.38,0,0,1-34.34-34.34V629.37A34.37,34.37,0,0,1,1882.79,595h208.12a34.38,34.38,0,0,1,34.34,34.34V837.49A34.39,34.39,0,0,1,2090.91,871.83ZM1882.79,619.89a9.49,9.49,0,0,0-9.48,9.48V837.49a9.49,9.49,0,0,0,9.48,9.47h208.12a9.48,9.48,0,0,0,9.47-9.47V629.37a9.49,9.49,0,0,0-9.47-9.48Z"/><path class="cls-9" d="M1922,826.53a25.17,25.17,0,0,1-17.7-43.06L2115.89,574.2a25.17,25.17,0,0,1,35.4,35.78L1939.74,819.26A25.11,25.11,0,0,1,1922,826.53Z"/><path class="cls-9" d="M2133.59,826.53a25.13,25.13,0,0,1-17.9-7.46L1906.42,607.52a25.17,25.17,0,1,1,35.78-35.4l209.28,211.55a25.16,25.16,0,0,1-17.89,42.86Z"/><text class="cls-10" transform="translate(1349.59 519.71)">ER</text><text class="cls-10" transform="translate(1351.1 274.77)"><tspan class="cls-11">S</tspan><tspan x="110.02" y="0">Å</tspan></text><text class="cls-10" transform="translate(1667.57 525.41)">DET</text><text class="cls-12" transform="translate(1339.24 867.69)">NU</text><path class="cls-13" d="M1104,80.85s10.09-48.91-33.34-74.69c0,0-53.64-26-83.68,30.81C987,37,974.79-4.48,930.91.4c0,0-53.64,2.44-43.89,56.07,0,0-20.66-25.91-51.2-12.19C802.58,59.23,811.44,90.6,811.44,90.6s-22.29-26.75-53.63-9.75c-20.81,11.29-20,40.54-15.53,57,0,0-25.92-18-47.86,1.52-22.24,19.78-2.44,58.52-2.44,58.52S670,173.5,643.22,195.44c-29.29,24-2.43,65.82-2.43,65.82s-18.13-31.37-51.2-7.31c-26.82,19.5-4.88,68.26-4.88,68.26S561.46,303,540.83,334.4c-17.94,27.34,2.44,65.83,2.44,65.83s-24.38-31.69-43.89,19.5c-9.85,25.86,21.94,78,21.94,78-3.49,5.76-34.13-7.32-19.5,56.07,12.86,55.73,47,118.06,105.53,198.52,62,85.31,87.79,112.17,97.17,115.59,14.09,5.16,18.11,7.41,18.11,7.41s29.63-3.33,94.84-22.21c176-51,232.08-94.85,232.08-94.85S1130,712,1159.26,658.33a55.11,55.11,0,0,0-.81-55.55s44.79-23.72,57.7-51.4c17.07-36.57-21.94-48.76-21.94-48.76s47.15-15.26,56.07-48.75C1261,413.54,1221,410,1221,410s25.29-8.54,31.69-34.13c12.19-48.76-34.13-53.64-34.13-53.64s45.56-19.56,30.74-56.06c-11.06-27.21-50.24-24.39-50.24-24.39s27.71-20,19.5-51.2c-12.19-46.32-63.39-26.82-63.39-26.82s32.19-32.59,14.63-63.38C1150.47,66.41,1104,80.85,1104,80.85Z"/><path class="cls-14" d="M1047.19,40.08s-46.4,114.13-69.73,170.65-108.33,259-157.86,377.93c-16.91,40.57-58.23,147.45-95.83,281.39-14.32,51-20.93,99.88-56,188,0,0-13.82,21.13-34.14,13-7.16-2.87-11.38-10.57-4.06-24.39,0,0,51.89-95.76,74.36-182.81s78-230.21,110.27-302.26c20-44.56,119.86-272.76,135.4-308.62S1035.05,58.52,1047.19,40.08Z"/><path class="cls-14" d="M899.15,401.89s117.48-10.27,288.58-83.27c0,0-109.93,66.8-295.13,92.08Z"/><path class="cls-14" d="M969.13,395.22s1.57,12.5,71.17,36.31c0,0-61-9.73-83.14-33.95Z"/><path class="cls-14" d="M1041.41,377.13s2.49,12.34,73.66,30.94c0,0-61.51-5.2-85.42-27.71Z"/><path class="cls-14" d="M1123.23,347.58s1.86,9.23,55.06,23.13c0,0-46-3.88-63.85-20.71Z"/><path class="cls-14" d="M1013.84,381.63s-3.86-12,49.12-63c0,0-51.11,34.62-61,65.95Z"/><path class="cls-14" d="M1095.45,357.79s-2.8-8.68,35.53-45.6c0,0-37,25.05-44.1,47.71Z"/><path class="cls-14" d="M947.57,396.36s-3.86-12,49.12-63c0,0-51.11,34.62-61,66Z"/><path class="cls-14" d="M949.34,274.13s73,0,229.27-65c0,0-82.13,53.61-230.39,73.25Z"/><path class="cls-14" d="M985.36,273.48s-1.86,9.07,41,42.13c0,0-40.18-21.2-49.91-43.32Z"/><path class="cls-14" d="M1036.05,264.54s-1.85,9.07,41,42.13c0,0-40.18-21.2-49.91-43.32Z"/><path class="cls-14" d="M1082.49,250.12s1,9.22,51.78,27.87c0,0-44.69-8.15-60.62-26.33Z"/><path class="cls-14" d="M1035.85,259.72s-2.65-8.88,37.16-45.57c0,0-38.17,24.64-45.92,47.53Z"/><path class="cls-14" d="M1089.93,247.59s-2.65-8.88,37.16-45.57c0,0-38.17,24.64-45.92,47.53Z"/><path class="cls-14" d="M986.85,269.49s-2.65-8.88,37.16-45.57c0,0-38.17,24.64-45.92,47.53Z"/><path class="cls-14" d="M836.33,537s187.19-37.37,345.37-111.44c0,0-152.8,85.36-346.89,120.56Z"/><path class="cls-14" d="M896.34,529.6s1.76,12.47,71.69,35.29c0,0-61.1-8.86-83.62-32.76Z"/><path class="cls-14" d="M983.66,504.76s3.2,12.18,75.32,26.67c0,0-61.71-1.66-86.87-22.76Z"/><path class="cls-14" d="M1068.14,474.33s6.11,11,79.57,7.21c0,0-60.2,13.66-89.8-.57Z"/><path class="cls-14" d="M1020.48,495.79S1016.19,484,1067.3,431c0,0-49.83,36.44-58.54,68.1Z"/><path class="cls-14" d="M924.76,521.49s-4.29-11.83,46.82-64.75c0,0-49.84,36.45-58.54,68.11Z"/><path class="cls-14" d="M788,658.65s120.32-.74,348-113.37c0,0-151.24,98.79-349.47,124.44Z"/><path class="cls-14" d="M891.28,646.42s3.32,12.14,75.59,25.9c0,0-61.73-1-87.1-21.88Z"/><path class="cls-14" d="M835,658.16s1.52,12.5,71,36.59c0,0-60.93-10-83-34.27Z"/><path class="cls-14" d="M985.33,618.54s3.33,12.14,75.6,25.84c0,0-61.73-1-87.11-21.81Z"/><path class="cls-14" d="M1035.55,593.39s2.43,8.86,55.18,18.86c0,0-45-.72-63.58-15.92Z"/><path class="cls-14" d="M953.12,623.31s-5.16-11.49,41.88-68c0,0-47,40-53.32,72.26Z"/><path class="cls-14" d="M1055.62,584.66s-5.16-11.49,41.87-68.06c0,0-47,40-53.31,72.27Z"/><path class="cls-14" d="M849.64,651.76s-5.16-11.49,41.88-68c0,0-47,40-53.32,72.26Z"/><path class="cls-14" d="M742,787.91s219-54.1,368.06-126.61c0,0-175.78,99.14-369.59,135.74Z"/><path class="cls-14" d="M806.44,778.94s3.19,7.4,62.79,22.24c0,0-51.85-4.79-69.1-20.81Z"/><path class="cls-14" d="M932.7,739s4.74,8.68,65.51,14.7c0,0-51.28,2.32-73.56-10.95Z"/><path class="cls-14" d="M1018,704s3.92,5.8,47.18,5.94c0,0-36,5.1-52.61-2.76Z"/><path class="cls-14" d="M1129.07,232.51s3.92,5.8,47.18,6c0,0-36,5.1-52.6-2.76Z"/><path class="cls-14" d="M1077.36,577.78s3.92,5.8,47.18,6c0,0-36,5.1-52.61-2.76Z"/><path class="cls-14" d="M1135.16,447s3.92,5.79,47.17,5.94c0,0-38.88,4.69-55.49-3.16Z"/><path class="cls-14" d="M868.15,762.09s1.76,7.36,52.21,18.51c0,0-43.62-3.16-60.55-16.59Z"/><path class="cls-14" d="M897.18,752s-1.18-15.49,47.39-59.64c0,0-50.34,35.09-57.49,63.69Z"/><path class="cls-14" d="M984.43,718.83s-4.48-8.66,38.14-50.6c0,0-42.37,30.92-48.39,55Z"/><path class="cls-14" d="M1066.31,683.62s-3.18-6.15,27.07-35.91c0,0-30.08,21.95-34.35,39Z"/><path class="cls-14" d="M1108.89,558.9s-3.17-6.15,27.08-35.91c0,0-30.08,21.94-34.35,39Z"/><path class="cls-14" d="M1113.56,455.66s-3.28-7.86,27-37.62c0,0-30.08,23.48-34.35,40.57Z"/><path class="cls-14" d="M1156.37,332.39s-2-7.79,28.27-37.55c0,0-30.08,21.94-34.35,39Z"/><path class="cls-14" d="M867.31,155.8s-5.58,4.09-39.69-21.17c0,0,26.36,26.31,43.91,27.87Z"/><path class="cls-14" d="M1145.4,225.8s-3.18-6.15,27.08-35.91c0,0-30.08,21.94-34.36,39Z"/><path class="cls-14" d="M859.88,137s6.44-2.52,3.38-44.84c0,0,8.1,36.34,0,52Z"/><path class="cls-14" d="M940.49,88.32s6.44-2.52,3.38-44.85c0,0,8.1,36.35,0,52Z"/><path class="cls-14" d="M799.63,780s-3.32-10.85,56-53.33c0,0-56.28,28-68.7,55.3Z"/><path class="cls-14" d="M898,392.76s-79.85-84.41-145.57-229.52c0,0,24.66,90.36,141,239.79Z"/><path class="cls-14" d="M857.78,346.57s-10.91,6.28-71.88-34.89c0,0,44.52,42.77,77.21,45.86Z"/><path class="cls-14" d="M792.94,249.72S781.7,255.39,723.07,211c0,0,42.13,45.13,74.6,50Z"/><path class="cls-14" d="M828.91,310.57s10.94-6.23,6.3-79.65c0,0,14.34,60.05.46,89.8Z"/><path class="cls-14" d="M798.77,258.72s10.94-6.23,6.31-79.65c0,0,14.34,60.05.45,89.8Z"/><path class="cls-14" d="M867.86,366.18s10.94-6.23,6.3-79.65c0,0,14.34,60,.46,89.8Z"/><path class="cls-14" d="M950.48,271.85S888.07,203.21,841.85,97.27c0,0,16.95,74.24,105.2,180.29Z"/><path class="cls-14" d="M925.36,251s-4.94,7.87-58.94,2.12c0,0,43.83,12.48,66.21,3.19Z"/><path class="cls-14" d="M894.8,209.36s-4.94,7.87-58.93,2.12c0,0,43.82,12.48,66.21,3.19Z"/><path class="cls-14" d="M898.29,206s8.08-4.6,4.65-58.79c0,0,10.59,44.32.34,66.29Z"/><path class="cls-14" d="M927,247.06s8.07-4.6,4.65-58.79c0,0,10.59,44.32.34,66.28Z"/><path class="cls-14" d="M990,169.58s-38.55-51.53-63.54-126.93c0,0,7.08,52.89,60.83,131Z"/><path class="cls-14" d="M974,153.08s-3.88,5.08-40.47-2.24c0,0,29.21,11.29,45.11,6.33Z"/><path class="cls-14" d="M955.7,122.68s-3.88,5.08-40.47-2.24c0,0,29.21,11.29,45.11,6.33Z"/><path class="cls-14" d="M945.27,96.93s-8,3.78-39.75-15.9c0,0,26.8,21.61,43.44,22.54Z"/><path class="cls-14" d="M958.29,120.61s5.82-2.64,6.87-39.95c0,0,4.47,31-3.92,45.39Z"/><path class="cls-14" d="M975.4,150.5s5.81-2.64,6.86-39.94c0,0,4.47,31-3.92,45.38Z"/><path class="cls-14" d="M995,164.63s71.86-13.69,138-44.34c0,0-31.9,27.23-138,50Z"/><path class="cls-14" d="M1033.65,160.62s-1,6.32,29.76,27.52c0,0-28.43-13.14-35.93-28Z"/><path class="cls-14" d="M1062.32,152.7s.69,6.35,35.78,19c0,0-30.83-5.46-41.87-17.94Z"/><path class="cls-14" d="M1096.61,139.34s1.67,6.17,38.3,13.27c0,0-31.31-.63-44.14-11.25Z"/><path class="cls-14" d="M1074.08,144.7s-2.14-6,23.93-32.72c0,0-25.38,18.35-29.88,34.39Z"/><path class="cls-14" d="M1021.42,160.14s-2.15-6,23.93-32.71c0,0-25.38,18.34-29.89,34.38Z"/><path class="cls-14" d="M843.26,512.53s-98-104.62-164.26-286.3c0,0,41.18,150.64,161.87,295.66Z"/><path class="cls-14" d="M824.33,494.46s-10.83,6.66-73.55-33.09c0,0,46.18,41.84,79.25,44Z"/><path class="cls-14" d="M774.09,428.88s-10.71,6.85-74.14-31.76c0,0,46.92,41,80,42.57Z"/><path class="cls-14" d="M742.39,367.57s-10.71,6.85-74.13-31.77c0,0,46.92,41,80,42.57Z"/><path class="cls-14" d="M707.35,301.38s-8.72,5.16-58.19-27.33c0,0,36.26,33.95,62.59,36.1Z"/><path class="cls-14" d="M722.79,335.87s11-6.29,6.36-80.4c0,0,14.48,60.61.46,90.65Z"/><path class="cls-14" d="M812.67,479.53s10.3-7.44-2.3-80.62c0,0,20.89,58.71,10.18,90.07Z"/><path class="cls-14" d="M766.53,406.71S778,401.26,778.89,327c0,0,9.9,61.52-6.32,90.42Z"/><path class="cls-14" d="M780,660.5S685.91,543.69,616.2,340.15c0,0,38.09,167.6,161.13,327.07Z"/><path class="cls-14" d="M759.27,638.54s-10.65,6.94-74.38-31.17c0,0,47.25,40.63,80.37,41.93Z"/><path class="cls-14" d="M695.52,535.91s-10.65,6.93-74.38-31.18c0,0,47.24,40.64,80.36,41.94Z"/><path class="cls-14" d="M643,418.07s-13.83,5.67-69.17-43.84c0,0,40.92,46.77,73.19,54.33Z"/><path class="cls-14" d="M657.38,448.52s6.63-4.7,11.46-78.8c0,0,9.22,60.09-8.52,88.09Z"/><path class="cls-14" d="M688.46,520.21s11.76-4.83,16.58-78.92c0,0,6.62,62-11.12,90Z"/><path class="cls-14" d="M747.77,622.81s11.75-4.84,16.58-78.93c0,0,6.61,62-11.13,90Z"/><path class="cls-14" d="M721.76,570.78s11.75-4.83,16.58-78.92c0,0,6.61,62-11.13,90Z"/><path class="cls-14" d="M730.92,784.66S630,665.38,551.58,450c0,0,46.44,180,177.61,344.25Z"/><path class="cls-14" d="M687,732.67s-12.55,9.13-79.6-43c0,0,47.71,49.25,83.87,54Z"/><path class="cls-14" d="M634.56,641.2s-8.59,7.35-79.23-46.33c0,0,46.77,50.15,82.83,55.57Z"/><path class="cls-14" d="M591.53,556.08s-10.3,4.29-59.2-38.75c0,0,34.28,42.59,62.65,49Z"/><path class="cls-14" d="M610.58,598.32s9-4.53,8.25-63.2c0,0,9,48.42-3.28,71.56Z"/><path class="cls-14" d="M582.83,535.37s7.5-3.79,6.9-52.89c0,0,7.53,40.52-2.74,59.88Z"/><path class="cls-14" d="M648.58,669.58s12.49-6.3,11.49-88c0,0,12.52,67.42-4.56,99.64Z"/><path class="cls-14" d="M703.18,752.79s8.43-27.23-10.8-83.39c0,0,28.59,59.61,17.73,95Z"/><path class="cls-15" d="M328.25,82.28S318.17,33.37,361.59,7.59c0,0,53.65-26,83.69,30.8,0,0,12.19-41.44,56.07-36.57,0,0,53.64,2.44,43.89,56.08,0,0,20.66-25.92,51.19-12.19C629.68,60.65,620.81,92,620.81,92s22.3-26.76,53.64-9.75c20.81,11.29,20,40.53,15.53,57,0,0,25.92-18,47.86,1.52,22.24,19.77,2.44,58.51,2.44,58.51s21.94-24.38,48.75-2.44c29.3,24,2.44,65.83,2.44,65.83s18.12-31.37,51.2-7.32c26.82,19.51,4.88,68.27,4.88,68.27s23.25-19.25,43.88,12.19c17.94,27.34-2.44,65.82-2.44,65.82s24.38-31.69,43.89,19.51c9.85,25.86-22,78-22,78,3.5,5.76,34.14-7.31,19.51,56.08-12.86,55.73-47,118.06-105.54,198.51-62,85.31-87.78,112.17-97.16,115.6-14.09,5.15-18.12,7.41-18.12,7.41s-29.62-3.34-94.83-22.22c-176-51-232.09-94.84-232.09-94.84s-80.45-46.32-109.7-100a55.11,55.11,0,0,1,.81-55.55s-44.79-23.72-57.7-51.39c-17.07-36.57,21.94-48.76,21.94-48.76S190.9,488.78,182,455.29c-10.75-40.32,29.25-43.88,29.25-43.88s-25.3-8.54-31.69-34.14c-12.19-48.76,34.13-53.63,34.13-53.63s-45.57-19.57-30.74-56.07c11-27.2,50.24-24.39,50.24-24.39s-27.71-20-19.5-51.19c12.19-46.33,63.39-26.82,63.39-26.82s-32.19-32.6-14.63-63.39C281.79,67.84,328.25,82.28,328.25,82.28Z"/><path class="cls-14" d="M385.07,41.5s46.4,114.14,69.73,170.65,108.33,259,157.86,377.94c16.91,40.57,58.23,147.45,95.83,281.38,14.32,51,20.93,99.89,56,188.06,0,0,13.81,21.13,34.14,13,7.15-2.86,11.37-10.57,4.06-24.38,0,0-51.89-95.76-74.37-182.82s-78-230.21-110.26-302.26c-20-44.56-119.86-272.75-135.4-308.61S397.21,59.94,385.07,41.5Z"/><path class="cls-14" d="M533.11,403.31S415.62,393.05,244.53,320c0,0,109.93,66.81,295.12,92.09Z"/><path class="cls-14" d="M463.13,396.65S461.56,409.14,392,433c0,0,61-9.74,83.14-33.95Z"/><path class="cls-14" d="M390.85,378.55s-2.49,12.34-73.67,30.94c0,0,61.52-5.19,85.43-27.7Z"/><path class="cls-14" d="M309,349s-1.86,9.22-55.06,23.12c0,0,46-3.88,63.85-20.7Z"/><path class="cls-14" d="M418.42,383.05s3.86-12-49.12-63c0,0,51.11,34.61,61,65.94Z"/><path class="cls-14" d="M336.81,359.21s2.79-8.67-35.54-45.59c0,0,37,25,44.11,47.71Z"/><path class="cls-14" d="M484.69,397.79s3.86-12-49.12-63c0,0,51.11,34.62,61,65.94Z"/><path class="cls-14" d="M482.92,275.56s-73,0-229.27-65c0,0,82.13,53.61,230.39,73.25Z"/><path class="cls-14" d="M446.9,274.9s1.86,9.08-41,42.14c0,0,40.18-21.2,49.91-43.32Z"/><path class="cls-14" d="M396.2,266s1.86,9.08-41,42.14c0,0,40.18-21.2,49.91-43.33Z"/><path class="cls-14" d="M349.77,251.55s-1,9.21-51.78,27.86c0,0,44.69-8.15,60.62-26.32Z"/><path class="cls-14" d="M396.41,261.14s2.65-8.88-37.16-45.57c0,0,38.17,24.65,45.92,47.54Z"/><path class="cls-14" d="M342.33,249s2.65-8.88-37.16-45.58c0,0,38.17,24.65,45.92,47.54Z"/><path class="cls-14" d="M445.41,270.92s2.65-8.89-37.16-45.58c0,0,38.17,24.65,45.91,47.54Z"/><path class="cls-14" d="M595.93,538.37S408.74,501,250.56,426.93c0,0,152.79,85.37,346.89,120.57Z"/><path class="cls-14" d="M535.91,531s-1.75,12.47-71.68,35.29c0,0,61.09-8.86,83.61-32.76Z"/><path class="cls-14" d="M448.6,506.19s-3.2,12.18-75.32,26.66c0,0,61.71-1.66,86.87-22.76Z"/><path class="cls-14" d="M364.12,475.75s-6.11,11-79.58,7.22c0,0,60.21,13.65,89.81-.57Z"/><path class="cls-14" d="M411.77,497.22s4.3-11.84-46.81-64.75c0,0,49.83,36.44,58.54,68.1Z"/><path class="cls-14" d="M507.5,522.92s4.29-11.84-46.82-64.75c0,0,49.83,36.44,58.54,68.1Z"/><path class="cls-14" d="M644.21,660.07s-120.31-.74-348-113.36c0,0,151.24,98.78,349.47,124.43Z"/><path class="cls-14" d="M541,647.84s-3.32,12.15-75.59,25.9c0,0,61.73-1,87.1-21.88Z"/><path class="cls-14" d="M597.28,659.59s-1.52,12.5-71,36.59c0,0,60.93-10,83-34.28Z"/><path class="cls-14" d="M446.93,620s-3.33,12.15-75.6,25.85c0,0,61.72-1,87.11-21.81Z"/><path class="cls-14" d="M396.7,594.82s-2.43,8.86-55.17,18.86c0,0,45.05-.72,63.57-15.92Z"/><path class="cls-14" d="M479.13,624.73s5.16-11.48-41.87-68.05c0,0,47,40.05,53.32,72.27Z"/><path class="cls-14" d="M376.64,586.08s5.16-11.49-41.88-68.05c0,0,47,40,53.32,72.26Z"/><path class="cls-14" d="M582.61,653.18s5.16-11.48-41.87-68c0,0,47,40,53.32,72.27Z"/><path class="cls-14" d="M690.23,789.34s-219-54.1-368.06-126.61c0,0,175.78,99.13,369.58,135.74Z"/><path class="cls-14" d="M625.82,780.37s-3.19,7.39-62.79,22.24c0,0,51.85-4.79,69.1-20.81Z"/><path class="cls-14" d="M499.56,740.39s-4.74,8.67-65.51,14.69c0,0,51.28,2.33,73.56-10.94Z"/><path class="cls-14" d="M414.22,705.45s-3.92,5.8-47.18,5.95c0,0,36,5.09,52.6-2.76Z"/><path class="cls-14" d="M303.19,233.94s-3.93,5.8-47.18,5.95c0,0,36,5.09,52.6-2.77Z"/><path class="cls-14" d="M354.9,579.21s-3.92,5.8-47.18,5.95c0,0,36,5.09,52.61-2.77Z"/><path class="cls-14" d="M297.1,448.4s-3.92,5.8-47.18,6c0,0,38.89,4.69,55.49-3.17Z"/><path class="cls-14" d="M564.11,763.52s-1.76,7.35-52.21,18.5c0,0,43.62-3.15,60.55-16.59Z"/><path class="cls-14" d="M535.08,753.37s1.18-15.49-47.39-59.63c0,0,50.34,35.09,57.48,63.69Z"/><path class="cls-14" d="M447.83,720.25s4.47-8.66-38.15-50.59c0,0,42.38,30.92,48.4,55Z"/><path class="cls-14" d="M366,685s3.18-6.14-27.08-35.91c0,0,30.09,22,34.36,39Z"/><path class="cls-14" d="M323.36,560.32s3.18-6.14-27.07-35.91c0,0,30.08,22,34.35,39Z"/><path class="cls-14" d="M318.7,457.09s3.28-7.86-27-37.63c0,0,30.09,23.48,34.36,40.58Z"/><path class="cls-14" d="M275.89,333.82s2-7.79-28.28-37.56c0,0,30.08,21.95,34.36,39Z"/><path class="cls-14" d="M565,157.22s5.58,4.1,39.69-21.16c0,0-26.36,26.3-43.91,27.86Z"/><path class="cls-14" d="M286.86,227.22s3.18-6.14-27.08-35.91c0,0,30.08,21.95,34.36,39Z"/><path class="cls-14" d="M572.38,138.42s-6.44-2.52-3.38-44.85c0,0-8.1,36.34,0,52Z"/><path class="cls-14" d="M491.77,89.75s-6.45-2.52-3.38-44.85c0,0-8.1,36.34,0,52Z"/><path class="cls-14" d="M632.63,781.43s3.32-10.86-56-53.34c0,0,56.29,28,68.71,55.3Z"/><path class="cls-14" d="M534.25,394.19s79.85-84.41,145.57-229.52c0,0-24.66,90.36-141,239.78Z"/><path class="cls-14" d="M574.48,348s10.91,6.28,71.88-34.89c0,0-44.52,42.76-77.22,45.85Z"/><path class="cls-14" d="M639.32,251.15s11.24,5.67,69.87-38.76c0,0-42.13,45.13-74.6,50Z"/><path class="cls-14" d="M603.35,312s-10.94-6.24-6.3-79.65c0,0-14.35,60-.46,89.8Z"/><path class="cls-14" d="M633.48,260.15s-10.94-6.24-6.3-79.65c0,0-14.34,60-.45,89.8Z"/><path class="cls-14" d="M564.4,367.61s-10.94-6.24-6.3-79.66c0,0-14.34,60.05-.46,89.81Z"/><path class="cls-14" d="M481.78,273.28s62.41-68.64,108.63-174.59c0,0-16.95,74.25-105.21,180.29Z"/><path class="cls-14" d="M506.9,252.41s4.94,7.87,58.94,2.12c0,0-43.83,12.48-66.21,3.19Z"/><path class="cls-14" d="M537.45,210.79s4.95,7.87,58.94,2.12c0,0-43.82,12.48-66.21,3.18Z"/><path class="cls-14" d="M534,207.44s-8.08-4.6-4.65-58.79c0,0-10.59,44.32-.34,66.28Z"/><path class="cls-14" d="M505.22,248.48s-8.07-4.6-4.65-58.79c0,0-10.59,44.32-.34,66.28Z"/><path class="cls-14" d="M442.24,171s38.54-51.53,63.54-126.94c0,0-7.08,52.9-60.83,131Z"/><path class="cls-14" d="M458.26,154.51s3.87,5.07,40.47-2.25c0,0-29.21,11.29-45.12,6.34Z"/><path class="cls-14" d="M476.56,124.11s3.88,5.07,40.47-2.25c0,0-29.21,11.29-45.11,6.34Z"/><path class="cls-14" d="M487,98.36s8,3.77,39.75-15.91c0,0-26.81,21.62-43.44,22.55Z"/><path class="cls-14" d="M474,122s-5.81-2.64-6.86-39.94c0,0-4.47,31,3.92,45.38Z"/><path class="cls-14" d="M456.86,151.93S451.05,149.28,450,112c0,0-4.46,31,3.93,45.39Z"/><path class="cls-14" d="M437.3,166.06s-71.86-13.69-138-44.35c0,0,31.9,27.24,138,50.05Z"/><path class="cls-14" d="M398.61,162.05s.95,6.31-29.76,27.52c0,0,28.43-13.14,35.92-28Z"/><path class="cls-14" d="M369.94,154.12s-.69,6.35-35.79,19c0,0,30.84-5.46,41.88-17.93Z"/><path class="cls-14" d="M335.65,140.76S334,146.93,297.35,154c0,0,31.31-.63,44.14-11.24Z"/><path class="cls-14" d="M358.18,146.12s2.14-6-23.93-32.71c0,0,25.38,18.34,29.88,34.38Z"/><path class="cls-14" d="M410.84,161.57s2.14-6-23.93-32.72c0,0,25.38,18.35,29.89,34.38Z"/><path class="cls-14" d="M589,514s98-104.62,164.26-286.3c0,0-41.18,150.65-161.87,295.67Z"/><path class="cls-14" d="M607.93,495.89s10.83,6.65,73.55-33.09c0,0-46.18,41.84-79.25,44Z"/><path class="cls-14" d="M658.17,430.31s10.71,6.85,74.13-31.77c0,0-46.92,41-80,42.57Z"/><path class="cls-14" d="M689.87,369s10.71,6.85,74.13-31.76c0,0-46.92,41-80,42.57Z"/><path class="cls-14" d="M724.91,302.8s8.72,5.17,58.18-27.33c0,0-36.25,33.95-62.58,36.1Z"/><path class="cls-14" d="M709.47,337.29s-11.05-6.29-6.36-80.4c0,0-14.48,60.61-.47,90.65Z"/><path class="cls-14" d="M619.59,481s-10.3-7.44,2.3-80.62c0,0-20.89,58.71-10.18,90.08Z"/><path class="cls-14" d="M665.73,408.13s-11.49-5.45-12.36-79.7c0,0-9.9,61.53,6.32,90.43Z"/><path class="cls-14" d="M652.29,661.93s94.05-116.81,163.77-320.36c0,0-38.09,167.6-161.13,327.07Z"/><path class="cls-14" d="M673,640s10.66,6.93,74.39-31.18c0,0-47.25,40.64-80.37,41.94Z"/><path class="cls-14" d="M736.74,537.33s10.65,6.94,74.38-31.17c0,0-47.24,40.63-80.36,41.93Z"/><path class="cls-14" d="M789.28,419.49s13.83,5.67,69.17-43.84c0,0-40.92,46.77-73.19,54.33Z"/><path class="cls-14" d="M774.88,449.94s-6.64-4.7-11.46-78.79c0,0-9.22,60.08,8.52,88.08Z"/><path class="cls-14" d="M743.8,521.64s-11.76-4.83-16.58-78.93c0,0-6.62,62,11.12,90Z"/><path class="cls-14" d="M684.49,624.23s-11.75-4.83-16.58-78.93c0,0-6.61,62,11.12,90Z"/><path class="cls-14" d="M710.5,572.21s-11.75-4.83-16.58-78.93c0,0-6.61,62,11.12,90Z"/><path class="cls-14" d="M701.34,786.08s101-119.28,179.34-334.64c0,0-46.44,180-177.61,344.25Z"/><path class="cls-14" d="M745.27,734.1s12.55,9.12,79.6-43c0,0-47.71,49.24-83.88,54Z"/><path class="cls-14" d="M797.7,642.63s8.59,7.34,79.23-46.33c0,0-46.77,50.14-82.83,55.56Z"/><path class="cls-14" d="M840.73,557.51s10.29,4.28,59.2-38.75c0,0-34.28,42.58-62.65,49Z"/><path class="cls-14" d="M821.68,599.74s-9-4.52-8.25-63.19c0,0-9,48.41,3.28,71.55Z"/><path class="cls-14" d="M849.43,536.79s-7.51-3.78-6.91-52.88c0,0-7.52,40.51,2.75,59.88Z"/><path class="cls-14" d="M783.67,671s-12.48-6.29-11.48-88c0,0-12.52,67.41,4.56,99.64Z"/><path class="cls-14" d="M729.08,754.21s-8.43-27.23,10.8-83.38c0,0-28.6,59.61-17.73,95Z"/></g></g></svg>