<svg xmlns="http://www.w3.org/2000/svg" viewBox="0 0 106.28 187.12"><title>tree</title><g id="Lag_2" data-name="Lag 2"><g id="Lag_1-2" data-name="Lag 1"><path d="M32.21,187.11S40,154.9,41.89,126.55,38.49,70.41,34,64.88s32.75-3.27,32.75-3.27-9.77,32-8.18,64.94a333.71,333.71,0,0,0,8.76,60.57Z" fill="#5d4836"/><ellipse cx="28.11" cy="69.83" rx="15.93" ry="13.03" transform="translate(-5.97 2.71) rotate(-4.99)" fill="#4e6839"/><ellipse cx="29.34" cy="67.37" rx="15.93" ry="13.03" transform="translate(-5.75 2.81) rotate(-4.99)" fill="#5f823a"/><ellipse cx="18.69" cy="61.93" rx="15.93" ry="13.03" transform="translate(-5.32 1.86) rotate(-4.99)" fill="#4e6839"/><ellipse cx="19.93" cy="59.47" rx="15.93" ry="13.03" transform="translate(-5.1 1.96) rotate(-4.99)" fill="#5f823a"/><ellipse cx="15.91" cy="46.74" rx="15.93" ry="13.03" transform="translate(-4.01 1.56) rotate(-4.99)" fill="#5f823a"/><ellipse cx="19.35" cy="30.94" rx="16.54" ry="13.98" transform="translate(-2.62 1.8) rotate(-4.99)" fill="#fde270"/><ellipse cx="17.66" cy="33.5" rx="15.93" ry="13.03" transform="translate(-2.85 1.66) rotate(-4.99)" fill="#5f823a"/><ellipse cx="30.49" cy="23.22" rx="16.54" ry="13.98" transform="translate(-1.91 2.74) rotate(-4.99)" fill="#fde270"/><ellipse cx="30.14" cy="26.6" rx="15.93" ry="13.03" transform="translate(-2.2 2.72) rotate(-4.99)" fill="#5f823a"/><ellipse cx="65.9" cy="73.68" rx="15.93" ry="13.03" transform="translate(-6.16 6.01) rotate(-4.99)" fill="#4e6839"/><ellipse cx="65.9" cy="69.99" rx="15.93" ry="13.03" transform="translate(-5.84 6) rotate(-4.99)" fill="#5f823a"/><ellipse cx="46.8" cy="72.5" rx="16.54" ry="13.03" transform="translate(-6.13 4.35) rotate(-4.99)" fill="#4e6839"/><ellipse cx="47.41" cy="69.98" rx="15.93" ry="13.03" transform="translate(-5.91 4.39) rotate(-4.99)" fill="#5f823a"/><ellipse cx="82.5" cy="65.3" rx="15.93" ry="13.03" transform="translate(-5.37 7.43) rotate(-4.99)" fill="#4e6839"/><ellipse cx="81.27" cy="62.83" rx="15.93" ry="13.03" transform="translate(-5.16 7.31) rotate(-4.99)" fill="#5f823a"/><ellipse cx="90.37" cy="55.41" rx="15.93" ry="13.03" transform="translate(-4.48 8.07) rotate(-4.99)" fill="#4e6839"/><ellipse cx="89.14" cy="54.18" rx="15.93" ry="13.03" transform="translate(-4.38 7.96) rotate(-4.99)" fill="#5f823a"/><ellipse cx="88.63" cy="40.82" rx="15.93" ry="13.03" transform="translate(-3.22 7.87) rotate(-4.99)" fill="#5f823a"/><ellipse cx="82.72" cy="25.65" rx="16.54" ry="13.98" transform="translate(-1.92 7.3) rotate(-4.99)" fill="#fde270"/><ellipse cx="82.57" cy="27.83" rx="15.93" ry="13.03" transform="translate(-2.11 7.29) rotate(-4.99)" fill="#5f823a"/><ellipse cx="70.93" cy="16.86" rx="16.54" ry="13.98" transform="matrix(1, -0.09, 0.09, 1, -1.2, 6.24)" fill="#fde270"/><ellipse cx="71.72" cy="20.06" rx="15.93" ry="13.03" transform="translate(-1.47 6.32) rotate(-4.99)" fill="#5f823a"/><ellipse cx="55.13" cy="14" rx="16.54" ry="13.98" transform="translate(-1.01 4.85) rotate(-4.99)" fill="#fde270"/><ellipse cx="55.47" cy="17.12" rx="15.93" ry="13.03" transform="translate(-1.28 4.89) rotate(-4.99)" fill="#5f823a"/><ellipse cx="39.87" cy="15.23" rx="16.54" ry="13.98" transform="translate(-1.17 3.53) rotate(-4.99)" fill="#fde270"/><ellipse cx="41.05" cy="18.38" rx="15.93" ry="13.03" transform="translate(-1.44 3.64) rotate(-4.99)" fill="#5f823a"/><ellipse cx="50.53" cy="43.71" rx="28.96" ry="26.06" transform="translate(-3.61 4.56) rotate(-4.99)" fill="#5f823a"/></g></g></svg>